<svg width="18" height="20" viewBox="0 0 18 20" fill="none" xmlns="http://www.w3.org/2000/svg">
<path d="M16.7816 6.88493C16.9437 6.88493 17.0751 6.7535 17.0751 6.59139V1.01331C17.0751 0.45456 16.6205 0 16.0618 0H1.93811C1.37936 0 0.924805 0.45456 0.924805 1.01331V18.9867C0.924805 19.5454 1.37936 20 1.93811 20H3.93068C4.09279 20 4.22422 19.8686 4.22422 19.7065C4.22422 19.5443 4.09279 19.4129 3.93068 19.4129H1.93811C1.70312 19.4129 1.51189 19.2217 1.51189 18.9867V17.6908H16.488V18.9867C16.488 19.2217 16.2968 19.4129 16.0618 19.4129H5.30054C5.13843 19.4129 5.007 19.5443 5.007 19.7065C5.007 19.8686 5.13843 20 5.30054 20H16.0618C16.6205 20 17.0751 19.5454 17.0751 18.9867V7.96125C17.0751 7.79914 16.9437 7.66771 16.7816 7.66771C16.6194 7.66771 16.488 7.79914 16.488 7.96125V17.1037H1.51189V4.38356H4.66895L5.0661 5.09898C5.39741 5.69577 6.02727 6.06654 6.70985 6.06654H11.2899C11.9725 6.06654 12.6023 5.69577 12.9337 5.09898L13.3308 4.38356H16.488V6.59139C16.488 6.7535 16.6194 6.88493 16.7816 6.88493ZM12.4204 4.81405C12.1925 5.22446 11.7593 5.47945 11.2899 5.47945H6.70985C6.24042 5.47945 5.80723 5.22446 5.5794 4.81405L5.34046 4.38356H12.6593L12.4204 4.81405ZM1.51189 3.79648V1.01331C1.51189 0.778278 1.70308 0.587084 1.93811 0.587084H16.0618C16.2968 0.587084 16.488 0.778278 16.488 1.01331V3.79648H1.51189Z" fill="#444444"/>
<path d="M14.6098 0.978516C13.9515 0.978516 13.416 1.51401 13.416 2.17225C13.416 2.83049 13.9515 3.36599 14.6098 3.36599C15.268 3.36599 15.8035 2.83049 15.8035 2.17225C15.8035 1.51401 15.268 0.978516 14.6098 0.978516ZM14.6098 2.77891C14.2752 2.77891 14.0031 2.50677 14.0031 2.17225C14.0031 1.83773 14.2752 1.5656 14.6098 1.5656C14.9443 1.5656 15.2164 1.83773 15.2164 2.17225C15.2164 2.50677 14.9443 2.77891 14.6098 2.77891Z" fill="#444444"/>
<path d="M8.07355 1.25244H2.90721C2.63742 1.25244 2.41797 1.47189 2.41797 1.74168V2.60273C2.41797 2.87252 2.63742 3.09197 2.90721 3.09197H8.07355C8.34333 3.09197 8.56278 2.87252 8.56278 2.60273V1.74168C8.56278 1.47189 8.34333 1.25244 8.07355 1.25244ZM7.9757 2.50489H3.00505V1.83953H7.9757V2.50489Z" fill="#444444"/>
<path d="M12.1439 1.31116C11.9818 1.31116 11.8503 1.44259 11.8503 1.6047V2.73973C11.8503 2.90184 11.9818 3.03327 12.1439 3.03327C12.306 3.03327 12.4374 2.90184 12.4374 2.73973V1.6047C12.4374 1.44259 12.306 1.31116 12.1439 1.31116Z" fill="#444444"/>
<path d="M10.7349 1.31116C10.5728 1.31116 10.4414 1.44259 10.4414 1.6047V2.73973C10.4414 2.90184 10.5728 3.03327 10.7349 3.03327C10.8971 3.03327 11.0285 2.90184 11.0285 2.73973V1.6047C11.0285 1.44259 10.8971 1.31116 10.7349 1.31116Z" fill="#444444"/>
</svg>
