<svg width="34" height="30" viewBox="0 0 34 30" fill="none" xmlns="http://www.w3.org/2000/svg">
<path d="M24.1719 0.125C22.8272 0.126564 21.4971 0.403601 20.2636 0.939023C19.0301 1.47445 17.9194 2.2569 17 3.23812C15.6526 1.80009 13.904 0.800313 11.9812 0.368589C10.0585 -0.0631346 8.05032 0.0931323 6.21748 0.817104C4.38465 1.54108 2.81177 2.79931 1.70305 4.42848C0.59433 6.05764 0.000970222 7.98248 0 9.95312C0 19.7388 15.7834 29.3438 16.4688 29.7209C16.634 29.8202 16.8232 29.8727 17.0159 29.8727C17.2087 29.8727 17.3979 29.8202 17.5631 29.7209C18.2166 29.3438 34 19.7388 34 9.95312C33.9972 7.34741 32.9608 4.84922 31.1183 3.0067C29.2758 1.16418 26.7776 0.127812 24.1719 0.125ZM17 27.5588C14.2534 25.8056 2.125 17.6138 2.125 9.95312C2.12636 8.31685 2.64873 6.72351 3.6164 5.40403C4.58408 4.08455 5.94677 3.10749 7.507 2.61444C9.06723 2.12139 10.7439 2.13798 12.2941 2.6618C13.8443 3.18561 15.1874 4.18945 16.1287 5.52781C16.2268 5.66703 16.3569 5.78063 16.5081 5.85904C16.6593 5.93746 16.8271 5.97839 16.9973 5.97839C17.1676 5.97839 17.3354 5.93746 17.4866 5.85904C17.6378 5.78063 17.7679 5.66703 17.8659 5.52781C18.8065 4.18715 20.1499 3.18115 21.7011 2.65585C23.2523 2.13056 24.9305 2.11332 26.4922 2.60663C28.0538 3.09994 29.4176 4.07812 30.3856 5.39918C31.3535 6.72024 31.8752 8.31541 31.875 9.95312C31.875 17.6084 19.7466 25.8003 17 27.5588Z" fill="#444444"/>
</svg>
