<svg width="10" height="10" viewBox="0 0 10 10" fill="none" xmlns="http://www.w3.org/2000/svg">
<path d="M9.71465 7.06635L7.52715 6.12885C7.4337 6.08903 7.32984 6.08063 7.23121 6.10494C7.13258 6.12924 7.04452 6.18493 6.98027 6.26362L6.01152 7.44721C4.49116 6.73037 3.26762 5.50683 2.55078 3.98647L3.73438 3.01772C3.81322 2.95359 3.86902 2.86553 3.89334 2.76685C3.91766 2.66817 3.90916 2.56426 3.86914 2.47084L2.93164 0.283343C2.88772 0.182642 2.81003 0.100423 2.71198 0.0508627C2.61393 0.00130276 2.50166 -0.0124913 2.39453 0.011859L0.363281 0.480609C0.259994 0.50446 0.167841 0.562617 0.101862 0.645586C0.0358838 0.728556 -2.37932e-05 0.83144 1.18285e-08 0.937445C1.18285e-08 5.94721 4.06055 9.99994 9.0625 9.99994C9.16854 10 9.27147 9.96413 9.35448 9.89814C9.43749 9.83216 9.49567 9.73998 9.51953 9.63666L9.98828 7.60541C10.0125 7.49776 9.99839 7.38504 9.94845 7.28665C9.8985 7.18827 9.81583 7.11036 9.71465 7.06635Z" fill="white"/>
</svg>
