<svg width="34" height="30" viewBox="0 0 34 30" fill="none" xmlns="http://www.w3.org/2000/svg">
<path d="M12.0193 26.953C12.0193 28.6007 13.3599 29.9412 15.0076 29.9412C16.6553 29.9412 17.9958 28.6007 17.9958 26.953C17.9958 25.3052 16.6553 23.9647 15.0076 23.9647C13.3599 23.9647 12.0193 25.3052 12.0193 26.953ZM15.0076 25.9569C15.5568 25.9569 16.0037 26.4037 16.0037 26.953C16.0037 27.5022 15.5568 27.949 15.0076 27.949C14.4583 27.949 14.0115 27.5022 14.0115 26.953C14.0115 26.4037 14.4583 25.9569 15.0076 25.9569Z" fill="#444444"/>
<path d="M22.0465 26.953C22.0465 28.6007 23.387 29.9412 25.0347 29.9412C26.6825 29.9412 28.023 28.6007 28.023 26.953C28.023 25.3052 26.6825 23.9647 25.0347 23.9647C23.387 23.9647 22.0465 25.3052 22.0465 26.953ZM25.0347 25.9569C25.584 25.9569 26.0308 26.4037 26.0308 26.953C26.0308 27.5022 25.584 27.949 25.0347 27.949C24.4855 27.949 24.0387 27.5022 24.0387 26.953C24.0387 26.4037 24.4855 25.9569 25.0347 25.9569Z" fill="#444444"/>
<path d="M33.0034 4.04315H7.79046C7.4494 2.84925 7.13159 1.73683 6.8586 0.781327C6.73648 0.353677 6.34555 0.0588379 5.90083 0.0588379H0.996078C0.445977 0.0588379 0 0.504815 0 1.05492C0 1.60502 0.445977 2.05099 0.996078 2.05099H5.14946C6.26334 5.95004 8.86735 15.0644 9.95906 18.8854L9.58167 19.6401C8.58726 21.6291 10.0355 23.9647 12.2545 23.9647H29.0191C29.5692 23.9647 30.0152 23.5187 30.0152 22.9686C30.0152 22.4185 29.5692 21.9726 29.0191 21.9726H12.2545C11.5137 21.9726 11.0326 21.1931 11.3635 20.531L11.6388 19.9804H29.0191C29.4638 19.9804 29.8547 19.6856 29.9768 19.258L33.9612 5.31288C34.1426 4.67772 33.6655 4.04315 33.0034 4.04315ZM28.2678 17.9882H11.7746C11.2319 16.0886 9.71296 10.7723 8.35962 6.03531H31.6829L28.2678 17.9882Z" fill="#444444"/>
</svg>
