<svg width="44" height="40" viewBox="0 0 44 40" fill="none" xmlns="http://www.w3.org/2000/svg">
<path d="M15.5544 35.4684C15.5544 37.6008 17.2892 39.3356 19.4216 39.3356C21.5539 39.3356 23.2887 37.6008 23.2887 35.4684C23.2887 33.3361 21.5539 31.6013 19.4216 31.6013C17.2892 31.6013 15.5544 33.3361 15.5544 35.4684ZM19.4216 34.1794C20.1323 34.1794 20.7106 34.7577 20.7106 35.4684C20.7106 36.1792 20.1323 36.7575 19.4216 36.7575C18.7108 36.7575 18.1325 36.1792 18.1325 35.4684C18.1325 34.7577 18.7108 34.1794 19.4216 34.1794Z" fill="white"/>
<path d="M28.5312 35.4684C28.5312 37.6008 30.266 39.3356 32.3984 39.3356C34.5307 39.3356 36.2655 37.6008 36.2655 35.4684C36.2655 33.3361 34.5307 31.6013 32.3984 31.6013C30.266 31.6013 28.5312 33.3361 28.5312 35.4684ZM32.3984 34.1794C33.1092 34.1794 33.6874 34.7577 33.6874 35.4684C33.6874 36.1792 33.1092 36.7575 32.3984 36.7575C31.6876 36.7575 31.1093 36.1792 31.1093 35.4684C31.1093 34.7577 31.6876 34.1794 32.3984 34.1794Z" fill="white"/>
<path d="M42.7103 5.82048H10.0818C9.6404 4.27543 9.22911 2.83583 8.87583 1.59929C8.71779 1.04586 8.21189 0.664307 7.63637 0.664307H1.28904C0.577147 0.664307 0 1.24145 0 1.95335C0 2.66524 0.577147 3.24239 1.28904 3.24239H6.66401C8.1055 8.28822 11.4754 20.0832 12.8882 25.0281L12.3998 26.0047C11.1129 28.5788 12.9871 31.6013 15.8587 31.6013H37.5541C38.266 31.6013 38.8431 31.0242 38.8431 30.3123C38.8431 29.6004 38.266 29.0232 37.5541 29.0232H15.8587C14.9 29.0232 14.2774 28.0145 14.7057 27.1577L15.062 26.4452H37.5541C38.1296 26.4452 38.6354 26.0637 38.7936 25.5103L43.9497 7.46366C44.1846 6.64168 43.5671 5.82048 42.7103 5.82048ZM36.5818 23.8671H15.2378C14.5354 21.4087 12.5697 14.5288 10.8183 8.39856H41.0014L36.5818 23.8671Z" fill="white"/>
</svg>
