<svg width="20" height="18" viewBox="0 0 20 18" fill="none" xmlns="http://www.w3.org/2000/svg">
<path d="M14.2188 0.25C13.4278 0.25092 12.6454 0.413883 11.9198 0.728837C11.1942 1.04379 10.5408 1.50406 10 2.08125C9.20741 1.23535 8.17883 0.647243 7.04779 0.393288C5.91675 0.139333 4.73548 0.231254 3.65734 0.65712C2.5792 1.08299 1.65398 1.82313 1.00179 2.78146C0.349606 3.73979 0.000570719 4.87205 0 6.03125C0 11.7875 9.28438 17.4375 9.6875 17.6594C9.78471 17.7178 9.89597 17.7486 10.0094 17.7486C10.1228 17.7486 10.234 17.7178 10.3313 17.6594C10.7156 17.4375 20 11.7875 20 6.03125C19.9983 4.49848 19.3887 3.02895 18.3049 1.94512C17.221 0.86128 15.7515 0.251654 14.2188 0.25ZM10 16.3875C8.38437 15.3563 1.25 10.5375 1.25 6.03125C1.2508 5.06873 1.55808 4.13148 2.1273 3.35531C2.69652 2.57915 3.4981 2.0044 4.41588 1.71438C5.33367 1.42435 6.31996 1.43411 7.23182 1.74223C8.14369 2.05036 8.93375 2.64085 9.4875 3.42813C9.54519 3.51002 9.62172 3.57684 9.71064 3.62297C9.79956 3.66909 9.89827 3.69317 9.99844 3.69317C10.0986 3.69317 10.1973 3.66909 10.2862 3.62297C10.3752 3.57684 10.4517 3.51002 10.5094 3.42813C11.0627 2.6395 11.8529 2.04773 12.7654 1.73874C13.6778 1.42974 14.665 1.4196 15.5836 1.70978C16.5023 1.99996 17.3045 2.57537 17.8739 3.35246C18.4432 4.12955 18.7501 5.06789 18.75 6.03125C18.75 10.5344 11.6156 15.3531 10 16.3875Z" fill="#444444"/>
</svg>
