<svg width="10" height="8" viewBox="0 0 10 8" fill="none" xmlns="http://www.w3.org/2000/svg">
<path d="M9.81055 2.72656C9.88672 2.66602 10 2.72266 10 2.81836V6.8125C10 7.33008 9.58008 7.75 9.0625 7.75H0.9375C0.419922 7.75 0 7.33008 0 6.8125V2.82031C0 2.72266 0.111328 2.66797 0.189453 2.72852C0.626953 3.06836 1.20703 3.5 3.19922 4.94727C3.61133 5.24805 4.30664 5.88086 5 5.87695C5.69727 5.88281 6.40625 5.23633 6.80273 4.94727C8.79492 3.5 9.37305 3.06641 9.81055 2.72656ZM5 5.25C5.45312 5.25781 6.10547 4.67969 6.43359 4.44141C9.02539 2.56055 9.22266 2.39648 9.82031 1.92773C9.93359 1.83984 10 1.70312 10 1.55859V1.1875C10 0.669922 9.58008 0.25 9.0625 0.25H0.9375C0.419922 0.25 0 0.669922 0 1.1875V1.55859C0 1.70312 0.0664062 1.83789 0.179688 1.92773C0.777344 2.39453 0.97461 2.56055 3.56641 4.44141C3.89453 4.67969 4.54688 5.25781 5 5.25Z" fill="white"/>
</svg>
